<svg width="140" height="55" viewBox="0 0 140 55" fill="none" xmlns="http://www.w3.org/2000/svg">
<g opacity="0.9" filter="url(#filter0_d_57_196)">
<rect width="132" height="46.6552" rx="23.3276" transform="matrix(-1 0 0 1 136 0.172424)" fill="#ADADAD"/>
</g>
<path d="M57.4752 28V18.2H59.6032L63.1732 24.01L61.6472 23.996L65.2592 18.2H67.3032V28H64.9932V24.948C64.9932 24.108 65.0118 23.352 65.0492 22.68C65.0958 22.008 65.1705 21.3407 65.2732 20.678L65.5392 21.406L62.8232 25.62H61.8992L59.2392 21.434L59.5052 20.678C59.6078 21.3033 59.6778 21.9473 59.7152 22.61C59.7618 23.2633 59.7852 24.0427 59.7852 24.948V28H57.4752ZM73.0282 28.14C72.2535 28.14 71.5628 27.972 70.9562 27.636C70.3588 27.3 69.8828 26.8427 69.5282 26.264C69.1828 25.6853 69.0102 25.0227 69.0102 24.276C69.0102 23.5293 69.1828 22.8667 69.5282 22.288C69.8828 21.7093 70.3588 21.252 70.9562 20.916C71.5628 20.58 72.2535 20.412 73.0282 20.412C73.8028 20.412 74.4888 20.58 75.0862 20.916C75.6928 21.252 76.1688 21.7093 76.5142 22.288C76.8595 22.8667 77.0322 23.5293 77.0322 24.276C77.0322 25.0227 76.8595 25.6853 76.5142 26.264C76.1688 26.8427 75.6928 27.3 75.0862 27.636C74.4888 27.972 73.8028 28.14 73.0282 28.14ZM73.0282 26.208C73.3642 26.208 73.6628 26.124 73.9242 25.956C74.1855 25.788 74.3908 25.5593 74.5402 25.27C74.6895 24.9807 74.7595 24.6493 74.7502 24.276C74.7595 23.9027 74.6895 23.5713 74.5402 23.282C74.3908 22.9833 74.1855 22.75 73.9242 22.582C73.6628 22.414 73.3642 22.33 73.0282 22.33C72.6922 22.33 72.3888 22.414 72.1182 22.582C71.8568 22.75 71.6515 22.9833 71.5022 23.282C71.3528 23.5713 71.2828 23.9027 71.2922 24.276C71.2828 24.6493 71.3528 24.9807 71.5022 25.27C71.6515 25.5593 71.8568 25.788 72.1182 25.956C72.3888 26.124 72.6922 26.208 73.0282 26.208ZM79.8475 28L77.3975 20.566H79.7635L81.1355 25.396L80.8415 25.34L82.3815 21.588H83.6975L85.3215 25.354L84.9995 25.382L86.3715 20.566H88.7375L86.2035 28H84.5515L82.9415 24.01L83.1095 24.038L81.4995 28H79.8475ZM99.0876 28.14C98.341 28.14 97.6596 28.014 97.0436 27.762C96.4276 27.51 95.891 27.1553 95.4336 26.698C94.9763 26.2407 94.6216 25.704 94.3696 25.088C94.1176 24.472 93.9916 23.7953 93.9916 23.058C93.9916 22.3207 94.1176 21.644 94.3696 21.028C94.6216 20.412 94.9763 19.8753 95.4336 19.418C95.891 18.9607 96.4276 18.606 97.0436 18.354C97.6596 18.102 98.3363 17.976 99.0736 17.976C99.811 17.976 100.488 18.102 101.104 18.354C101.72 18.606 102.256 18.9607 102.714 19.418C103.171 19.8753 103.521 20.412 103.764 21.028C104.016 21.644 104.142 22.3207 104.142 23.058C104.142 23.786 104.016 24.4627 103.764 25.088C103.521 25.704 103.171 26.2407 102.714 26.698C102.256 27.1553 101.72 27.51 101.104 27.762C100.488 28.014 99.8156 28.14 99.0876 28.14ZM99.0736 25.9C99.4563 25.9 99.8063 25.83 100.124 25.69C100.45 25.55 100.73 25.354 100.964 25.102C101.206 24.8407 101.393 24.5373 101.524 24.192C101.654 23.8467 101.72 23.4687 101.72 23.058C101.72 22.6473 101.654 22.2693 101.524 21.924C101.393 21.5787 101.206 21.28 100.964 21.028C100.73 20.7667 100.45 20.566 100.124 20.426C99.8063 20.286 99.4563 20.216 99.0736 20.216C98.691 20.216 98.3363 20.286 98.0096 20.426C97.6923 20.566 97.4123 20.7667 97.1696 21.028C96.927 21.28 96.7403 21.5787 96.6096 21.924C96.4883 22.2693 96.4276 22.6473 96.4276 23.058C96.4276 23.4687 96.4883 23.8513 96.6096 24.206C96.7403 24.5513 96.927 24.85 97.1696 25.102C97.4123 25.354 97.6923 25.55 98.0096 25.69C98.3363 25.83 98.691 25.9 99.0736 25.9ZM106.207 28V20.202C106.207 19.7167 106.31 19.278 106.515 18.886C106.73 18.494 107.024 18.186 107.397 17.962C107.78 17.7287 108.223 17.612 108.727 17.612C109.082 17.612 109.408 17.6633 109.707 17.766C110.006 17.8687 110.272 18.0133 110.505 18.2L109.861 19.838C109.74 19.7727 109.623 19.7213 109.511 19.684C109.399 19.6467 109.296 19.628 109.203 19.628C109.035 19.628 108.895 19.656 108.783 19.712C108.671 19.768 108.587 19.8567 108.531 19.978C108.484 20.09 108.461 20.23 108.461 20.398V28H107.341C107.089 28 106.865 28 106.669 28C106.482 28 106.328 28 106.207 28ZM105.129 22.624V20.776H109.987V22.624H105.129ZM111.709 28V20.202C111.709 19.7167 111.812 19.278 112.017 18.886C112.232 18.494 112.526 18.186 112.899 17.962C113.282 17.7287 113.725 17.612 114.229 17.612C114.584 17.612 114.91 17.6633 115.209 17.766C115.508 17.8687 115.774 18.0133 116.007 18.2L115.363 19.838C115.242 19.7727 115.125 19.7213 115.013 19.684C114.901 19.6467 114.798 19.628 114.705 19.628C114.537 19.628 114.397 19.656 114.285 19.712C114.173 19.768 114.089 19.8567 114.033 19.978C113.986 20.09 113.963 20.23 113.963 20.398V28H112.843C112.591 28 112.367 28 112.171 28C111.984 28 111.83 28 111.709 28ZM110.631 22.624V20.776H115.489V22.624H110.631Z" fill="white"/>
<circle r="16.5" transform="matrix(-1 0 0 1 27.3276 23.5)" fill="white"/>
<g style="mix-blend-mode:luminosity" clip-path="url(#clip0_57_196)">
<path d="M37 23.7206C37 25.0554 36.7415 26.3515 36.2322 27.5711C36.0593 27.9866 35.8594 28.3874 35.6339 28.772C35.4669 29.0558 35.0821 29.1067 34.8518 28.8726L33.9937 28.0023C33.4767 27.4777 33.3163 26.699 33.5622 26.0009C33.8136 25.2877 33.95 24.5199 33.95 23.7206C33.95 23.5847 33.9458 23.4501 33.9374 23.3154C33.731 19.7523 30.8049 16.9189 27.2403 16.9189C25.3979 16.9189 23.7248 17.6763 22.5101 18.9002L20.3511 16.712C21.2451 15.8102 22.2827 15.1012 23.4393 14.6057C24.6445 14.0896 25.9232 13.8276 27.2403 13.8276C28.5573 13.8276 29.8343 14.0896 31.0394 14.6057C32.2015 15.1036 33.2463 15.8169 34.1415 16.726C34.6232 17.2142 35.0492 17.7443 35.416 18.315C35.732 18.8062 36.0049 19.3254 36.2322 19.8688C36.7415 21.0896 37 22.3857 37 23.7206Z" fill="#D3E053"/>
<path d="M35.8822 33.6129H33.6879C33.0644 33.6129 32.4666 33.3618 32.0256 32.9154L30.3172 31.1852V33.1113C29.3286 33.4455 28.2964 33.6135 27.2409 33.6135C25.9238 33.6135 24.6451 33.3527 23.4405 32.8366C22.2784 32.3369 21.2349 31.6236 20.3385 30.7163C19.4433 29.809 18.7396 28.7501 18.2477 27.5723C17.7385 26.3527 17.48 25.0566 17.48 23.7218C17.48 22.3869 17.7385 21.0908 18.2477 19.87C18.3369 19.6565 18.4326 19.4479 18.5349 19.2429L20.8639 21.6033C20.6478 22.2705 20.53 22.9825 20.53 23.7224C20.53 27.4717 23.5404 30.5229 27.2409 30.5229H27.2666V25.8445C27.2666 25.0615 28.2007 24.6691 28.747 25.2228L36.2178 32.7935C36.517 33.0962 36.3052 33.6147 35.8822 33.6147V33.6129Z" fill="#D3E053"/>
<path d="M23.2455 19.6535C23.4717 19.3939 23.7296 19.1616 24.0018 18.9488C24.2741 18.7353 24.5655 18.5454 24.8701 18.3781C25.4817 18.0512 26.1542 17.8134 26.8567 17.7449C28.969 17.5381 31.0305 18.7614 32.1674 20.5232C32.9387 21.7186 33.2894 23.2427 32.9956 24.6521C32.8472 25.3417 32.5594 25.9894 32.1818 26.5656C32.481 25.9433 32.709 25.2901 32.7975 24.6163C33.0853 22.4191 31.9035 20.1963 30.094 19.0155C28.8721 18.2179 27.3295 17.8595 25.9041 18.2258C25.5816 18.3089 25.2656 18.4223 24.9587 18.5606C24.3453 18.8372 23.7643 19.2041 23.2455 19.6535Z" fill="#D3E053"/>
<path d="M17.6368 19.5189C16.1492 22.4015 16.5776 26.1404 18.1041 28.9151C19.7437 31.896 22.8613 33.8313 26.1871 34.1776C27.4587 34.3104 28.765 34.217 29.9989 33.8695C26.7718 34.7786 23.1216 34.3122 20.4402 32.1944C17.7882 30.1002 16.2701 26.7651 16.5501 23.3591C16.6596 22.0242 17.0234 20.707 17.6368 19.5189Z" fill="#D3E053"/>
<path d="M30.3165 33.1101C29.328 33.4443 28.2958 33.6123 27.2402 33.6123C25.9232 33.6123 24.6444 33.3515 23.4399 32.8354C22.2778 32.3356 21.2342 31.6224 20.3379 30.7151C19.4427 29.8078 18.739 28.7489 18.2471 27.5711C17.7379 26.3515 17.4794 25.0554 17.4794 23.7205C17.4794 22.3857 17.7379 21.0896 18.2471 19.8688C18.3363 19.6553 18.432 19.4467 18.5343 19.2417L20.8632 21.6021C20.6472 22.2692 20.5293 22.9812 20.5293 23.7212C20.5293 27.4704 23.5398 30.5217 27.2402 30.5217H27.266V30.4622C28.5268 33.0222 30.316 33.1113 30.316 33.1113L30.3165 33.1101Z" fill="#8DC400"/>
<path d="M33.938 23.3154C33.731 19.7523 30.8055 16.9189 27.2409 16.9189C25.3985 16.9189 23.7254 17.6763 22.5107 18.9002L20.3517 16.712C21.2457 15.8102 22.2833 15.1012 23.44 14.6057C24.6445 14.0896 25.9233 13.8276 27.2403 13.8276C28.5574 13.8276 29.8343 14.0896 31.0395 14.6057C32.2015 15.1036 33.2463 15.8169 34.1415 16.726C34.6232 17.2142 35.0492 17.7443 35.4161 18.315C35.5094 19.5843 35.364 21.5851 33.9374 23.3154H33.938Z" fill="#8DC400"/>
</g>
<defs>
<filter id="filter0_d_57_196" x="0" y="0.172424" width="140" height="54.6552" filterUnits="userSpaceOnUse" color-interpolation-filters="sRGB">
<feFlood flood-opacity="0" result="BackgroundImageFix"/>
<feColorMatrix in="SourceAlpha" type="matrix" values="0 0 0 0 0 0 0 0 0 0 0 0 0 0 0 0 0 0 127 0" result="hardAlpha"/>
<feOffset dy="4"/>
<feGaussianBlur stdDeviation="2"/>
<feComposite in2="hardAlpha" operator="out"/>
<feColorMatrix type="matrix" values="0 0 0 0 0 0 0 0 0 0 0 0 0 0 0 0 0 0 0.15 0"/>
<feBlend mode="normal" in2="BackgroundImageFix" result="effect1_dropShadow_57_196"/>
<feBlend mode="normal" in="SourceGraphic" in2="effect1_dropShadow_57_196" result="shape"/>
</filter>
<clipPath id="clip0_57_196">
<rect width="20.4828" height="20.4828" fill="white" transform="translate(16.5172 13.8276)"/>
</clipPath>
</defs>
</svg>
