<svg width="148" height="59" viewBox="0 0 148 59" fill="none" xmlns="http://www.w3.org/2000/svg">
<g opacity="0.9" filter="url(#filter0_d_57_21)">
<rect x="4" y="0.758606" width="140" height="49.4828" rx="24.7414" fill="#1E4940"/>
</g>
<path d="M29.6382 31.0345V21.2345H31.7662L35.3362 27.0445L33.8102 27.0305L37.4222 21.2345H39.4662V31.0345H37.1562V27.9825C37.1562 27.1425 37.1748 26.3865 37.2122 25.7145C37.2588 25.0425 37.3335 24.3751 37.4362 23.7125L37.7022 24.4405L34.9862 28.6545H34.0622L31.4022 24.4685L31.6682 23.7125C31.7708 24.3378 31.8408 24.9818 31.8782 25.6445C31.9248 26.2978 31.9482 27.0771 31.9482 27.9825V31.0345H29.6382ZM45.1912 31.1745C44.4165 31.1745 43.7259 31.0065 43.1192 30.6705C42.5219 30.3345 42.0459 29.8771 41.6912 29.2985C41.3459 28.7198 41.1732 28.0571 41.1732 27.3105C41.1732 26.5638 41.3459 25.9011 41.6912 25.3225C42.0459 24.7438 42.5219 24.2865 43.1192 23.9505C43.7259 23.6145 44.4165 23.4465 45.1912 23.4465C45.9659 23.4465 46.6519 23.6145 47.2492 23.9505C47.8559 24.2865 48.3319 24.7438 48.6772 25.3225C49.0225 25.9011 49.1952 26.5638 49.1952 27.3105C49.1952 28.0571 49.0225 28.7198 48.6772 29.2985C48.3319 29.8771 47.8559 30.3345 47.2492 30.6705C46.6519 31.0065 45.9659 31.1745 45.1912 31.1745ZM45.1912 29.2425C45.5272 29.2425 45.8259 29.1585 46.0872 28.9905C46.3485 28.8225 46.5539 28.5938 46.7032 28.3045C46.8525 28.0151 46.9225 27.6838 46.9132 27.3105C46.9225 26.9371 46.8525 26.6058 46.7032 26.3165C46.5539 26.0178 46.3485 25.7845 46.0872 25.6165C45.8259 25.4485 45.5272 25.3645 45.1912 25.3645C44.8552 25.3645 44.5519 25.4485 44.2812 25.6165C44.0199 25.7845 43.8145 26.0178 43.6652 26.3165C43.5159 26.6058 43.4459 26.9371 43.4552 27.3105C43.4459 27.6838 43.5159 28.0151 43.6652 28.3045C43.8145 28.5938 44.0199 28.8225 44.2812 28.9905C44.5519 29.1585 44.8552 29.2425 45.1912 29.2425ZM52.0105 31.0345L49.5605 23.6005H51.9265L53.2985 28.4305L53.0045 28.3745L54.5445 24.6225H55.8605L57.4845 28.3885L57.1625 28.4165L58.5345 23.6005H60.9005L58.3665 31.0345H56.7145L55.1045 27.0445L55.2725 27.0725L53.6625 31.0345H52.0105ZM71.2507 31.1745C70.504 31.1745 69.8227 31.0485 69.2067 30.7965C68.5907 30.5445 68.054 30.1898 67.5967 29.7325C67.1393 29.2751 66.7847 28.7385 66.5327 28.1225C66.2807 27.5065 66.1547 26.8298 66.1547 26.0925C66.1547 25.3551 66.2807 24.6785 66.5327 24.0625C66.7847 23.4465 67.1393 22.9098 67.5967 22.4525C68.054 21.9951 68.5907 21.6405 69.2067 21.3885C69.8227 21.1365 70.4993 21.0105 71.2367 21.0105C71.974 21.0105 72.6507 21.1365 73.2667 21.3885C73.8827 21.6405 74.4193 21.9951 74.8767 22.4525C75.334 22.9098 75.684 23.4465 75.9267 24.0625C76.1787 24.6785 76.3047 25.3551 76.3047 26.0925C76.3047 26.8205 76.1787 27.4971 75.9267 28.1225C75.684 28.7385 75.334 29.2751 74.8767 29.7325C74.4193 30.1898 73.8827 30.5445 73.2667 30.7965C72.6507 31.0485 71.9787 31.1745 71.2507 31.1745ZM71.2367 28.9345C71.6193 28.9345 71.9693 28.8645 72.2867 28.7245C72.6133 28.5845 72.8933 28.3885 73.1267 28.1365C73.3693 27.8751 73.556 27.5718 73.6867 27.2265C73.8173 26.8811 73.8827 26.5031 73.8827 26.0925C73.8827 25.6818 73.8173 25.3038 73.6867 24.9585C73.556 24.6131 73.3693 24.3145 73.1267 24.0625C72.8933 23.8011 72.6133 23.6005 72.2867 23.4605C71.9693 23.3205 71.6193 23.2505 71.2367 23.2505C70.854 23.2505 70.4993 23.3205 70.1727 23.4605C69.8553 23.6005 69.5753 23.8011 69.3327 24.0625C69.09 24.3145 68.9033 24.6131 68.7727 24.9585C68.6513 25.3038 68.5907 25.6818 68.5907 26.0925C68.5907 26.5031 68.6513 26.8858 68.7727 27.2405C68.9033 27.5858 69.09 27.8845 69.3327 28.1365C69.5753 28.3885 69.8553 28.5845 70.1727 28.7245C70.4993 28.8645 70.854 28.9345 71.2367 28.9345ZM77.908 31.0345V23.6005H80.036L80.106 25.1125L79.658 25.2805C79.7607 24.9445 79.9427 24.6411 80.204 24.3705C80.4747 24.0905 80.7967 23.8665 81.17 23.6985C81.5433 23.5305 81.9353 23.4465 82.346 23.4465C82.906 23.4465 83.3773 23.5631 83.76 23.7965C84.1427 24.0205 84.432 24.3611 84.628 24.8185C84.824 25.2665 84.922 25.8171 84.922 26.4705V31.0345H82.668V26.6525C82.668 26.3538 82.626 26.1065 82.542 25.9105C82.458 25.7145 82.3273 25.5698 82.15 25.4765C81.982 25.3738 81.772 25.3271 81.52 25.3365C81.324 25.3365 81.142 25.3691 80.974 25.4345C80.806 25.4905 80.6613 25.5791 80.54 25.7005C80.4187 25.8125 80.3207 25.9431 80.246 26.0925C80.1807 26.2418 80.148 26.4051 80.148 26.5825V31.0345H79.042C78.7807 31.0345 78.5567 31.0345 78.37 31.0345C78.1833 31.0345 78.0293 31.0345 77.908 31.0345Z" fill="white"/>
<circle cx="119.259" cy="25.5" r="17.5" fill="white"/>
<g clip-path="url(#clip0_57_21)">
<path d="M129.517 25.7339C129.517 27.1497 129.243 28.5243 128.703 29.8178C128.52 30.2584 128.308 30.6836 128.068 31.0914C127.891 31.3925 127.483 31.4465 127.239 31.1982L126.329 30.2752C125.78 29.7188 125.61 28.8928 125.871 28.1525C126.138 27.396 126.282 26.5817 126.282 25.7339C126.282 25.5898 126.278 25.447 126.269 25.3042C126.05 21.5252 122.947 18.52 119.166 18.52C117.212 18.52 115.437 19.3234 114.149 20.6214L111.859 18.3006C112.807 17.3441 113.908 16.5922 115.135 16.0666C116.413 15.5192 117.769 15.2414 119.166 15.2414C120.563 15.2414 121.917 15.5192 123.195 16.0666C124.428 16.5947 125.536 17.3512 126.486 18.3154C126.996 18.8332 127.448 19.3954 127.837 20.0007C128.172 20.5217 128.462 21.0723 128.703 21.6487C129.243 22.9435 129.517 24.3181 129.517 25.7339Z" fill="#D3E053"/>
<path d="M128.332 36.2258H126.004C125.343 36.2258 124.709 35.9595 124.241 35.4861L122.429 33.6509V35.6938C121.381 36.0483 120.286 36.2264 119.167 36.2264C117.77 36.2264 116.414 35.9498 115.136 35.4024C113.904 34.8724 112.797 34.116 111.846 33.1537C110.897 32.1914 110.15 31.0683 109.629 29.8191C109.088 28.5256 108.814 27.151 108.814 25.7352C108.814 24.3194 109.088 22.9448 109.629 21.65C109.723 21.4236 109.825 21.2023 109.933 20.9849L112.403 23.4884C112.174 24.1959 112.049 24.9511 112.049 25.7358C112.049 29.7123 115.242 32.9485 119.167 32.9485H119.194V27.9865C119.194 27.1561 120.185 26.7399 120.764 27.3272L128.688 35.3568C129.005 35.6777 128.78 36.2277 128.332 36.2277V36.2258Z" fill="#D3E053"/>
<path d="M114.929 21.4203C115.169 21.145 115.443 20.8987 115.731 20.6729C116.02 20.4465 116.329 20.2451 116.652 20.0676C117.301 19.7209 118.014 19.4687 118.759 19.396C121 19.1767 123.186 20.4741 124.392 22.3427C125.21 23.6106 125.582 25.227 125.27 26.7219C125.113 27.4533 124.807 28.1402 124.407 28.7513C124.724 28.0914 124.966 27.3986 125.06 26.684C125.365 24.3535 124.112 21.996 122.193 20.7436C120.897 19.8978 119.261 19.5176 117.749 19.9061C117.407 19.9943 117.072 20.1145 116.746 20.2612C116.096 20.5545 115.479 20.9437 114.929 21.4203Z" fill="#D3E053"/>
<path d="M108.981 21.2775C107.403 24.3348 107.857 28.3004 109.476 31.2432C111.215 34.4048 114.522 36.4573 118.049 36.8246C119.398 36.9655 120.783 36.8664 122.092 36.4979C118.669 37.4621 114.798 36.9674 111.954 34.7212C109.141 32.5001 107.531 28.963 107.828 25.3505C107.944 23.9348 108.33 22.5376 108.981 21.2775Z" fill="#D3E053"/>
<path d="M122.429 35.6925C121.38 36.0469 120.286 36.2251 119.166 36.2251C117.769 36.2251 116.413 35.9485 115.135 35.4011C113.903 34.8711 112.796 34.1146 111.845 33.1524C110.896 32.1901 110.15 31.067 109.628 29.8178C109.088 28.5243 108.814 27.1496 108.814 25.7339C108.814 24.3181 109.088 22.9435 109.628 21.6487C109.722 21.4222 109.824 21.201 109.932 20.9836L112.403 23.487C112.173 24.1946 112.048 24.9498 112.048 25.7345C112.048 29.711 115.241 32.9472 119.166 32.9472H119.193V32.8841C120.531 35.5992 122.428 35.6938 122.428 35.6938L122.429 35.6925Z" fill="#8DC400"/>
<path d="M126.27 25.3042C126.05 21.5252 122.947 18.52 119.167 18.52C117.213 18.52 115.438 19.3234 114.15 20.6214L111.86 18.3006C112.808 17.3441 113.909 16.5922 115.135 16.0666C116.413 15.5192 117.769 15.2414 119.166 15.2414C120.563 15.2414 121.917 15.5192 123.195 16.0666C124.428 16.5947 125.536 17.3512 126.485 18.3154C126.996 18.8332 127.448 19.3954 127.837 20.0007C127.936 21.347 127.782 23.469 126.269 25.3042H126.27Z" fill="#8DC400"/>
</g>
<defs>
<filter id="filter0_d_57_21" x="0" y="0.758606" width="148" height="57.4828" filterUnits="userSpaceOnUse" color-interpolation-filters="sRGB">
<feFlood flood-opacity="0" result="BackgroundImageFix"/>
<feColorMatrix in="SourceAlpha" type="matrix" values="0 0 0 0 0 0 0 0 0 0 0 0 0 0 0 0 0 0 127 0" result="hardAlpha"/>
<feOffset dy="4"/>
<feGaussianBlur stdDeviation="2"/>
<feComposite in2="hardAlpha" operator="out"/>
<feColorMatrix type="matrix" values="0 0 0 0 0 0 0 0 0 0 0 0 0 0 0 0 0 0 0.15 0"/>
<feBlend mode="normal" in2="BackgroundImageFix" result="effect1_dropShadow_57_21"/>
<feBlend mode="normal" in="SourceGraphic" in2="effect1_dropShadow_57_21" result="shape"/>
</filter>
<clipPath id="clip0_57_21">
<rect width="21.7241" height="21.7241" fill="white" transform="translate(107.793 15.2414)"/>
</clipPath>
</defs>
</svg>
