<svg width="25" height="25" viewBox="0 0 25 25" fill="none" xmlns="http://www.w3.org/2000/svg">
<path d="M8.2348 14.2729L11.8238 15.361C11.8192 15.3839 11.8101 15.4113 11.8009 15.4342C11.7049 15.6948 11.5083 15.8411 11.1883 15.8914C10.0087 16.0788 8.05192 15.96 8.03363 15.96C7.73188 15.9417 7.47128 16.1703 7.453 16.472C7.43471 16.7738 7.6633 17.0344 7.96505 17.0527C8.05192 17.0572 10.059 17.1807 11.362 16.9704C12.6559 16.7646 13.0262 15.6262 12.9576 14.9084C12.9348 14.6844 12.7839 14.4969 12.569 14.4329L8.55026 13.2168C6.56604 12.6179 4.38979 13.7243 4.29835 13.77C4.28921 13.7746 4.27549 13.7791 4.26635 13.7883L0.265894 16.2069C0.00529283 16.3623 -0.0770022 16.7006 0.078444 16.9612C0.183599 17.1304 0.361905 17.2264 0.549354 17.2264C0.645365 17.2264 0.741376 17.199 0.832815 17.1487L4.81498 14.7484C4.98872 14.657 6.73977 13.8203 8.2348 14.2729Z" fill="white"/>
<path d="M21.9323 13.3539C21.6168 12.7779 20.6338 11.8589 19.1434 12.5173C17.7352 13.1436 14.7589 14.5747 14.7269 14.5884C14.4526 14.721 14.3383 15.0456 14.4708 15.3199C14.6034 15.5942 14.9326 15.7085 15.2024 15.5759C15.2344 15.5622 18.1924 14.1358 19.5869 13.5185C19.9846 13.3402 20.3184 13.3402 20.6064 13.5185C20.6155 13.5231 20.6201 13.5277 20.6293 13.5323L13.1724 18.9957C12.6421 19.3843 11.97 19.5444 11.3253 19.4438L4.67316 18.3831C4.51772 18.3602 4.3577 18.4014 4.23425 18.502L2.55178 19.9055C2.31861 20.0976 2.28661 20.445 2.4832 20.6782C2.59293 20.8062 2.74837 20.8748 2.90382 20.8748C3.02726 20.8748 3.1507 20.8337 3.25586 20.7468L4.74631 19.5032L11.1562 20.5273C12.0889 20.6782 13.0627 20.4405 13.8262 19.8827L21.7814 14.058C21.9963 13.8934 22.0648 13.5963 21.9323 13.3539Z" fill="white"/>
<path d="M11.7689 12.723C12.6239 12.723 13.424 12.3893 14.032 11.7858C15.2802 10.5376 15.2802 8.51226 14.032 7.26412C13.4285 6.66063 12.6239 6.32687 11.7689 6.32687C10.914 6.32687 10.1139 6.66063 9.50581 7.26412C8.25767 8.51226 8.25767 10.5376 9.50581 11.7858C10.1139 12.3893 10.914 12.723 11.7689 12.723ZM10.283 8.04135C10.6808 7.64359 11.2066 7.42414 11.7689 7.42414C12.3313 7.42414 12.857 7.64359 13.2548 8.04135C14.0732 8.85973 14.0732 10.1947 13.2548 11.0131C12.857 11.4109 12.3313 11.6303 11.7689 11.6303C11.2066 11.6303 10.6808 11.4109 10.283 11.0131C9.46466 10.1947 9.46466 8.85973 10.283 8.04135Z" fill="white"/>
<path d="M15.5225 6.47316C16.19 6.47316 16.8163 6.21256 17.2873 5.74165C18.2611 4.76782 18.2611 3.18593 17.2873 2.2121C16.8163 1.74119 16.19 1.48059 15.5225 1.48059C14.855 1.48059 14.2286 1.74119 13.7577 2.2121C12.7839 3.18593 12.7839 4.76782 13.7577 5.74165C14.2286 6.21713 14.8596 6.47316 15.5225 6.47316ZM14.5349 2.98933C14.8001 2.72416 15.1522 2.57786 15.5271 2.57786C15.902 2.57786 16.254 2.72416 16.5192 2.98933C17.0632 3.5334 17.0632 4.42492 16.5192 4.96899C16.254 5.23416 15.902 5.38046 15.5271 5.38046C15.1522 5.38046 14.8001 5.23416 14.5349 4.96899C13.9909 4.42035 13.9909 3.5334 14.5349 2.98933Z" fill="white"/>
</svg>
