<svg width="27" height="24" viewBox="0 0 27 24" fill="none" xmlns="http://www.w3.org/2000/svg">
<path d="M23.2998 11.5C23.3036 12.8199 22.9615 14.1219 22.3012 15.3C21.5184 16.7117 20.3149 17.8992 18.8256 18.7293C17.3363 19.5594 15.62 19.9994 13.869 20C12.4046 20.0034 10.96 19.6951 9.65282 19.1L3.32861 21L5.43668 15.3C4.77645 14.1219 4.43431 12.8199 4.43812 11.5C4.4388 9.92176 4.92699 8.37485 5.848 7.03255C6.76901 5.69025 8.08648 4.60557 9.65282 3.9C10.96 3.30493 12.4046 2.99656 13.869 3H14.4237C16.7363 3.11499 18.9206 3.99476 20.5584 5.47086C22.1961 6.94695 23.1722 8.91565 23.2998 11V11.5Z" stroke="#98C23C" stroke-width="2" stroke-linecap="round" stroke-linejoin="round"/>
</svg>
