<svg width="22" height="22" viewBox="0 0 22 22" fill="none" xmlns="http://www.w3.org/2000/svg">
<path fill-rule="evenodd" clip-rule="evenodd" d="M21.4602 7.50841L21.4557 10.1122L21.4467 15.0056V15.0101L21.4422 17.4613L13.6308 22L13.3794 21.8518L12.6566 21.4343L0.553324 14.4265V11.9977L0.539856 11.9888L0.553324 11.9798V9.55555L0.539856 9.54657L0.553324 9.53759V7.11784L0.539856 7.10886L0.553324 7.09988V4.63075C0.535367 4.55443 0.575771 4.47811 0.674536 4.41975L8.15826 0.074074C8.32885 -0.0246913 8.61168 -0.0246913 8.78228 0.074074L21.3345 7.31537C21.4108 7.36475 21.4512 7.42311 21.4602 7.48148V7.48597V7.50841ZM3.64648 3.82267C3.72728 3.85409 3.79911 3.89001 3.87094 3.93041C4.50843 4.29854 4.51292 4.89562 3.87992 5.26374C3.8036 5.30864 3.72728 5.34455 3.64648 5.37598L12.1089 10.2604C12.1493 10.2289 12.1897 10.1975 12.2391 10.1706C12.8721 9.80246 13.9046 9.80246 14.5421 10.1706C14.6409 10.2245 14.7262 10.2873 14.7935 10.3547L18.3131 8.30751C18.1964 8.26711 18.0887 8.22222 17.9899 8.16386C17.3524 7.79573 17.3479 7.19865 17.9809 6.83052C18.0752 6.77216 18.1829 6.72727 18.2952 6.68686L9.81033 1.79349C9.75646 1.84287 9.69361 1.88777 9.62178 1.92817C8.98878 2.29629 7.95624 2.29629 7.31875 1.92817C7.24692 1.88777 7.18856 1.84287 7.13469 1.79798L3.64648 3.82267ZM13.6263 20.8687L20.5174 16.8687V15.5353L13.6218 19.5488L13.3659 19.4007L12.6431 18.9832L1.47813 12.532V13.8429L13.6263 20.8687ZM13.6128 18.4175L20.5174 14.4085V13.1156L13.6308 17.1201L13.3794 16.9719L12.6566 16.5544L1.47813 10.0898V11.4007L13.6128 18.4175ZM13.6263 15.9888L20.5174 11.908V10.6599L13.6218 14.6689L13.3659 14.5208L12.6431 14.1032L1.47813 7.65207V8.96745L13.6263 15.9888ZM13.6128 13.5331L20.5174 9.52412V8.15488L13.8507 12.0292C13.6801 12.1279 13.4018 12.1279 13.2267 12.0292L1.47813 5.24579V6.52974L13.6128 13.5331ZM14.9506 8.82828L13.9809 8.26712C13.8956 8.21773 13.8956 8.13692 13.9809 8.08754L14.5331 7.76431C14.6184 7.71493 14.7576 7.71493 14.8429 7.76431L15.8126 8.32548C15.8979 8.37486 15.8979 8.45567 15.8126 8.50505L15.2604 8.82828C15.1751 8.87766 15.0359 8.87766 14.9506 8.82828ZM6.19643 3.77327L7.16612 4.33444C7.25142 4.38382 7.39059 4.38382 7.47589 4.33444L8.02808 4.01121C8.11337 3.96182 8.11337 3.88101 8.02808 3.83163L7.05838 3.27495C6.97308 3.22557 6.83391 3.22557 6.74862 3.27495L6.19643 3.5937C6.11113 3.64308 6.11113 3.72389 6.19643 3.77327ZM8.50394 4.60829C9.87767 3.81368 12.1089 3.81368 13.4871 4.60829C14.8608 5.40291 14.8698 6.69584 13.5006 7.49045C12.1313 8.28506 9.90012 8.28506 8.52189 7.49045C7.14367 6.69584 7.13469 5.40291 8.50394 4.60829ZM9.64423 6.46688H10.6139L12.8317 6.47586V5.91469L10.6139 5.9102V5.36699L9.64423 5.3625V5.90571V6.46688Z" fill="#98C23C"/>
</svg>
