<svg width="23" height="23" viewBox="0 0 23 23" fill="none" xmlns="http://www.w3.org/2000/svg">
<g clip-path="url(#clip0_56_45)">
<path d="M6.70835 21.0833H3.83335C3.32502 21.0833 2.83751 20.8814 2.47807 20.5219C2.11862 20.1625 1.91669 19.675 1.91669 19.1666V12.4583C1.91669 11.95 2.11862 11.4625 2.47807 11.103C2.83751 10.7436 3.32502 10.5416 3.83335 10.5416H6.70835M13.4167 8.62497V4.79163C13.4167 4.02914 13.1138 3.29787 12.5746 2.7587C12.0355 2.21953 11.3042 1.91663 10.5417 1.91663L6.70835 10.5416V21.0833H17.5184C17.9806 21.0885 18.4291 20.9265 18.7813 20.6271C19.1336 20.3278 19.3657 19.9112 19.435 19.4541L20.7575 10.8291C20.7992 10.5544 20.7807 10.274 20.7032 10.0071C20.6258 9.7403 20.4912 9.4935 20.3089 9.28383C20.1266 9.07417 19.9008 8.90665 19.6474 8.79288C19.3939 8.67912 19.1187 8.62182 18.8409 8.62497H13.4167Z" stroke="#98C23C" stroke-width="2" stroke-linecap="round" stroke-linejoin="round"/>
</g>
<defs>
<clipPath id="clip0_56_45">
<rect width="23" height="23" fill="white"/>
</clipPath>
</defs>
</svg>
