<svg width="19" height="19" viewBox="0 0 19 19" fill="none" xmlns="http://www.w3.org/2000/svg">
<path d="M1.7897 5.12407C1.95275 5.20188 2.41472 5.4353 2.9194 4.89436C3.12127 4.62389 3.32314 4.35342 3.56384 4.08666C3.84723 3.77914 3.80453 3.27896 3.48231 3.00849C3.16009 2.73802 2.636 2.77878 2.35261 3.0863C2.06921 3.39382 1.78581 3.74209 1.54512 4.08666C1.30831 4.43123 1.42866 4.89065 1.7897 5.12407Z" fill="#F39C12"/>
<path d="M9.66658 1.50054C10.4352 1.50054 11.2 1.6154 11.9299 1.84882C12.419 1.9859 12.7762 1.6932 12.9392 1.38569C13.0596 0.963311 12.8189 0.537231 12.4151 0.422375C11.5261 0.151907 10.6371 0 9.70928 0C9.26672 0 8.90179 0.307518 8.90179 0.733598C8.90179 1.15968 9.22401 1.50054 9.66658 1.50054Z" fill="#F39C12"/>
<path d="M16.8563 6.20225C17.1397 6.85804 17.2989 7.55088 17.3804 8.24372C17.3804 8.24372 17.427 9.10329 18.2694 8.97732C19.1041 8.87358 18.9954 8.09182 18.9954 8.09182C18.9138 7.24336 18.6731 6.39491 18.3509 5.62426C18.1491 5.23893 17.7065 5.04627 17.3027 5.20188C16.8951 5.39455 16.6933 5.81692 16.8563 6.20225Z" fill="#F39C12"/>
<path d="M13.9486 2.81212C14.593 3.2345 15.1598 3.73839 15.6451 4.31637C16.0061 4.74616 16.6156 4.56831 16.736 4.43123C17.0582 4.16076 17.1397 3.66058 16.8563 3.35306C16.2895 2.69727 15.6024 2.08223 14.8376 1.57835C14.4727 1.34863 13.9913 1.42273 13.7467 1.77101C13.5021 2.11928 13.5837 2.57871 13.9486 2.81212Z" fill="#F39C12"/>
<path d="M5.22539 2.69357C5.86982 2.30824 6.59967 2.00072 7.32563 1.80806C7.76819 1.69321 8.01277 1.26713 7.89242 0.881802C7.77207 0.459427 7.32563 0.226009 6.92188 0.340866C6.03287 0.570578 5.18656 0.918852 4.4179 1.38198C4.05298 1.6117 3.93263 2.07483 4.17721 2.4231C4.33637 2.65652 4.678 2.88623 5.22539 2.69357Z" fill="#F39C12"/>
<path d="M18.1879 9.94063C17.7453 9.82577 17.3416 10.0962 17.26 10.5186C17.1785 10.8669 16.9301 11.6783 16.9262 11.7561C15.8586 14.4052 13.2964 16.2688 10.3537 16.569C7.45762 16.8579 4.63918 15.6093 3.0048 13.3641L4.49942 13.679C4.90317 13.7568 5.34573 13.5234 5.42726 13.101C5.50878 12.7157 5.26421 12.2933 4.82164 12.2155L1.67322 11.5597C1.47135 11.5227 0.842443 11.5597 0.702686 12.1377L0.0155459 15.1833C-0.0659792 15.5686 0.178596 15.991 0.621161 16.0688C1.11419 16.1169 1.46747 15.8391 1.5917 15.4537L1.83239 14.4089C3.62982 16.732 6.8753 18.4511 10.5168 18.0769C14.1893 17.699 17.3027 15.3389 18.514 12.0266C18.5528 11.9302 18.7353 11.1225 18.7974 10.8298C18.9177 10.4038 18.6343 10.0184 18.1879 9.94063Z" fill="#F39C12"/>
<path d="M6.39001 9.82577H10.113C10.5555 9.82577 10.8816 9.4775 10.9205 9.05513V3.78656C10.9205 3.36418 10.5555 3.01591 10.113 3.01591C9.67042 3.01591 9.3055 3.36418 9.3055 3.78656V8.28448H6.39001C5.94744 8.28448 5.58252 8.63275 5.58252 9.05513C5.58252 9.4775 5.94356 9.82577 6.39001 9.82577Z" fill="#F39C12"/>
</svg>
