<svg width="156" height="103" viewBox="0 0 156 103" fill="none" xmlns="http://www.w3.org/2000/svg">
<path fill-rule="evenodd" clip-rule="evenodd" d="M155.025 55.2893L154.992 74.4628L154.926 110.496V110.529L154.893 128.579L97.3719 162L95.5207 160.909L90.1984 157.835L1.07439 106.231V88.3471L0.97522 88.281L1.07439 88.2149V70.3636L0.97522 70.2975L1.07439 70.2314V52.4132L0.97522 52.3471L1.07439 52.281V34.0992C0.942162 33.5372 1.23968 32.9752 1.96696 32.5455L57.0744 0.545455C58.3306 -0.181818 60.4132 -0.181818 61.6694 0.545455L154.099 53.8678C154.661 54.2314 154.959 54.6612 155.025 55.0909V55.124V55.2893ZM23.8513 28.1488C24.4463 28.3802 24.9752 28.6446 25.5041 28.9422C30.1984 31.6529 30.2314 36.0496 25.5703 38.7603C25.0083 39.0909 24.4463 39.3554 23.8513 39.5868L86.1653 75.5537C86.4628 75.3223 86.7604 75.0909 87.124 74.8926C91.7851 72.1818 99.3885 72.1818 104.083 74.8926C104.81 75.2893 105.438 75.7521 105.934 76.2479L131.851 61.1736C130.992 60.876 130.198 60.5455 129.471 60.1157C124.777 57.405 124.744 53.0083 129.405 50.2975C130.099 49.8678 130.893 49.5372 131.719 49.2397L69.2397 13.2066C68.843 13.5702 68.3802 13.9008 67.8513 14.1983C63.1901 16.9091 55.5868 16.9091 50.8926 14.1983C50.3637 13.9008 49.9339 13.5702 49.5372 13.2397L23.8513 28.1488ZM97.3389 153.669L148.083 124.215V114.397L97.3058 143.95L95.4215 142.859L90.0992 139.785L7.88431 92.281V101.934L97.3389 153.669ZM97.2397 135.62L148.083 106.099V96.5785L97.3719 126.066L95.5207 124.975L90.1984 121.901L7.88431 74.2975V83.9504L97.2397 135.62ZM97.3389 117.736L148.083 87.686V78.4959L97.3058 108.017L95.4215 106.926L90.0992 103.851L7.88431 56.3471V66.0331L97.3389 117.736ZM97.2397 99.6529L148.083 70.1322V60.0496L98.9918 88.5785C97.7356 89.3058 95.686 89.3058 94.3967 88.5785L7.88431 38.6281V48.0826L97.2397 99.6529ZM107.091 65.0083L99.9504 60.876C99.3223 60.5124 99.3223 59.9173 99.9504 59.5537L104.017 57.1735C104.645 56.8099 105.669 56.8099 106.298 57.1735L113.438 61.3058C114.066 61.6694 114.066 62.2645 113.438 62.6281L109.372 65.0083C108.744 65.3719 107.719 65.3719 107.091 65.0083ZM42.6281 27.7851L49.7686 31.9174C50.3967 32.281 51.4215 32.281 52.0496 31.9174L56.1157 29.5372C56.7438 29.1736 56.7438 28.5785 56.1157 28.2149L48.9752 24.1157C48.3471 23.7521 47.3223 23.7521 46.6942 24.1157L42.6281 26.4628C42 26.8265 42 27.4215 42.6281 27.7851ZM59.6199 33.9339C69.7356 28.0827 86.1653 28.0827 96.3141 33.9339C106.43 39.7851 106.496 49.3058 96.4132 55.157C86.3306 61.0083 69.9008 61.0083 59.7521 55.157C49.6033 49.3058 49.5372 39.7851 59.6199 33.9339ZM68.0165 47.6199H75.1571L91.4876 47.686V43.5537L75.1571 43.5207V39.5207L68.0165 39.4876V43.4876V47.6199Z" fill="#153E35"/>
</svg>
